# xmcd CD database file
#
# Track frame offsets:
#	150
#	11200
#	24318
#	33607
#	48016
#	60665
#	73586
#	85400
#	102079
#	111053
#	120439
#	130707
#	141998
#	157020
#	170721
#	189068
#	215512
#	231169
#	248581
#
# Disc length: 3550 seconds
#
# Revision: 0
# Processed by: cddbd v1.5.1PL2 Copyright (c) Steve Scherf et al.
# Submitted via: CDex 1.51
#
DISCID=fd0ddc13
DTITLE=Bent Persson - Louis Armstrong's 50 Choruses for Cornet 1927, Vol. 2-3
DYEAR=2006
DGENRE=Jazz
TTITLE0=Spanish Shawl
TTITLE1=Tia Juana
TTITLE2=King Porter Stomp
TTITLE3=Sobbin' Blues
TTITLE4=She's Crying For Me
TTITLE5=Hot Notes
TTITLE6=Froggie Moore (Sweetheart O'Mine)
TTITLE7=London Cafe Blues
TTITLE8=Milenberg Joys
TTITLE9=San Sue Strut
TTITLE10=Livery Stable Blues
TTITLE11=Wa Wa Wa
TTITLE12=Some of These Days
TTITLE13=Grace and Beauty
TTITLE14=Milenberg Joys
TTITLE15=Snag It
TTITLE16=Maple Leaf Rag
TTITLE17=Sugar Babe
TTITLE18=Steamboat Stomp
EXTD=YEAR: 2006
EXTT0=
EXTT1=
EXTT2=
EXTT3=
EXTT4=
EXTT5=
EXTT6=
EXTT7=
EXTT8=
EXTT9=
EXTT10=
EXTT11=
EXTT12=
EXTT13=
EXTT14=
EXTT15=
EXTT16=
EXTT17=
EXTT18=
PLAYORDER=
